<svg width="24" height="24" viewBox="0 0 41 41" fill="none" xmlns="http://www.w3.org/2000/svg">
<path d="M20.3042 40.272C19.1402 40.272 18.2407 39.9545 17.6058 39.3196C16.9709 38.6318 16.6534 37.7058 16.6534 36.5418V23.5259H3.87563C2.76452 23.5259 1.8915 23.2349 1.25658 22.6529C0.62166 22.018 0.304199 21.145 0.304199 20.0339C0.304199 18.9228 0.62166 18.0762 1.25658 17.4942C1.8915 16.8593 2.76452 16.5418 3.87563 16.5418H16.6534V3.92277C16.6534 2.75874 16.9709 1.85927 17.6058 1.22435C18.2407 0.589432 19.1666 0.271973 20.3836 0.271973C21.5476 0.271973 22.4206 0.589432 23.0026 1.22435C23.6375 1.85927 23.955 2.75874 23.955 3.92277V16.5418H36.7328C37.8968 16.5418 38.7698 16.8593 39.3518 17.4942C39.9867 18.0762 40.3042 18.9228 40.3042 20.0339C40.3042 21.145 39.9867 22.018 39.3518 22.6529C38.7698 23.2349 37.8968 23.5259 36.7328 23.5259H23.955V36.5418C23.955 37.7058 23.6375 38.6318 23.0026 39.3196C22.4206 39.9545 21.5211 40.272 20.3042 40.272Z" fill="white"/>
</svg>
