<svg width="37" height="37" viewBox="0 0 37 37" fill="none" xmlns="http://www.w3.org/2000/svg">
<path d="M21.35 16.65C20.7977 16.65 20.35 16.2023 20.35 15.65V10.25C20.35 9.69772 19.9023 9.25 19.35 9.25H17.65C17.0977 9.25 16.65 9.69772 16.65 10.25V15.65C16.65 16.2023 16.2023 16.65 15.65 16.65H10.25C9.69772 16.65 9.25 17.0977 9.25 17.65V19.35C9.25 19.9023 9.69772 20.35 10.25 20.35H15.65C16.2023 20.35 16.65 20.7977 16.65 21.35V26.75C16.65 27.3023 17.0977 27.75 17.65 27.75H19.35C19.9023 27.75 20.35 27.3023 20.35 26.75V21.35C20.35 20.7977 20.7977 20.35 21.35 20.35H26.75C27.3023 20.35 27.75 19.9023 27.75 19.35V17.65C27.75 17.0977 27.3023 16.65 26.75 16.65H21.35ZM18.5 37C13.5935 37 8.88795 35.0509 5.41852 31.5815C1.9491 28.1121 0 23.4065 0 18.5C0 13.5935 1.9491 8.88795 5.41852 5.41852C8.88795 1.9491 13.5935 0 18.5 0C23.4065 0 28.1121 1.9491 31.5815 5.41852C35.0509 8.88795 37 13.5935 37 18.5C37 23.4065 35.0509 28.1121 31.5815 31.5815C28.1121 35.0509 23.4065 37 18.5 37Z" fill="white"/>
</svg>
