<svg width="55" height="55" viewBox="0 0 55 55" fill="none" xmlns="http://www.w3.org/2000/svg">
<path d="M27.5879 0.5C12.6763 0.5 0.587891 12.5884 0.587891 27.5C0.587891 42.4124 12.6763 54.5 27.5879 54.5C42.5003 54.5 54.5879 42.4124 54.5879 27.5C54.5879 12.5884 42.5003 0.5 27.5879 0.5ZM27.5879 51.1782C14.5612 51.1782 3.96289 40.5267 3.96289 27.4999C3.96289 14.4732 14.5612 3.87489 27.5879 3.87489C40.6145 3.87489 51.2129 14.4733 51.2129 27.4999C51.2129 40.5265 40.6145 51.1782 27.5879 51.1782ZM39.4004 25.8125H29.2754V15.6875C29.2754 14.756 28.5194 14 27.5879 14C26.6564 14 25.9004 14.756 25.9004 15.6875V25.8125H15.7754C14.8439 25.8125 14.0879 26.5685 14.0879 27.5C14.0879 28.4315 14.8439 29.1875 15.7754 29.1875H25.9004V39.3125C25.9004 40.244 26.6564 41 27.5879 41C28.5194 41 29.2754 40.244 29.2754 39.3125V29.1875H39.4004C40.3319 29.1875 41.0879 28.4315 41.0879 27.5C41.0879 26.5685 40.3319 25.8125 39.4004 25.8125Z" fill="white"/>
</svg>
