<svg width="32" height="32" viewBox="0 0 32 32" fill="none" xmlns="http://www.w3.org/2000/svg">
<path d="M0 16C0 24.8362 7.16385 32 16 32C24.8362 32 32 24.8362 32 16C32 7.16385 24.8362 0 16 0C7.16385 0 0 7.16385 0 16ZM16.3577 8.97231C16.4725 9.08614 16.5637 9.22147 16.6262 9.37057C16.6886 9.51967 16.7211 9.67961 16.7217 9.84126C16.7224 10.0029 16.6912 10.1631 16.6299 10.3127C16.5686 10.4623 16.4785 10.5983 16.3646 10.7131L12.34 14.7692H22.6154C22.9418 14.7692 23.2549 14.8989 23.4857 15.1297C23.7165 15.3605 23.8462 15.6736 23.8462 16C23.8462 16.3264 23.7165 16.6395 23.4857 16.8703C23.2549 17.1011 22.9418 17.2308 22.6154 17.2308H12.34L16.3646 21.2869C16.4785 21.4018 16.5686 21.5379 16.6298 21.6876C16.691 21.8373 16.7222 21.9976 16.7215 22.1593C16.7207 22.321 16.6882 22.481 16.6256 22.6301C16.5631 22.7793 16.4718 22.9146 16.3569 23.0285C16.2421 23.1423 16.1059 23.2324 15.9562 23.2936C15.8066 23.3549 15.6463 23.386 15.4846 23.3853C15.3228 23.3846 15.1629 23.352 15.0137 23.2895C14.8646 23.2269 14.7292 23.1356 14.6154 23.0208L8.50846 16.8669C8.2797 16.6364 8.15133 16.3248 8.15133 16C8.15133 15.6752 8.2797 15.3636 8.50846 15.1331L14.6154 8.97923C14.7292 8.86423 14.8647 8.77281 15.0139 8.71021C15.1632 8.64761 15.3233 8.61505 15.4851 8.61441C15.6469 8.61377 15.8073 8.64505 15.957 8.70646C16.1068 8.76787 16.2429 8.85821 16.3577 8.97231Z" fill="#558332"/>
</svg>
