<svg width="51" height="51" viewBox="0 0 51 51" fill="none" xmlns="http://www.w3.org/2000/svg">
<path d="M9.23978 31.4617H10.9702C10.97 31.1252 10.8717 30.796 10.6873 30.5145C10.5029 30.233 10.2404 30.0113 9.93194 29.8767L9.23978 31.4617ZM41.5402 31.4617L40.848 29.8767C40.5396 30.0113 40.2771 30.233 40.0927 30.5145C39.9083 30.796 39.81 31.1252 39.8098 31.4617H41.5402ZM34.0419 13.9641C34.0419 14.4231 34.2242 14.8632 34.5487 15.1877C34.8732 15.5122 35.3133 15.6945 35.7723 15.6945C36.2312 15.6945 36.6713 15.5122 36.9958 15.1877C37.3203 14.8632 37.5026 14.4231 37.5026 13.9641H34.0419ZM13.2773 13.9641C13.2773 14.4231 13.4596 14.8632 13.7842 15.1877C14.1087 15.5122 14.5488 15.6945 15.0077 15.6945C15.4666 15.6945 15.9068 15.5122 16.2313 15.1877C16.5558 14.8632 16.7381 14.4231 16.7381 13.9641H13.2773ZM30.0043 46.8413C29.5454 46.8413 29.1053 47.0236 28.7808 47.3481C28.4563 47.6727 28.2739 48.1128 28.2739 48.5717C28.2739 49.0306 28.4563 49.4708 28.7808 49.7953C29.1053 50.1198 29.5454 50.3021 30.0043 50.3021V46.8413ZM20.7756 50.3021C21.2346 50.3021 21.6747 50.1198 21.9992 49.7953C22.3237 49.4708 22.506 49.0306 22.506 48.5717C22.506 48.1128 22.3237 47.6727 21.9992 47.3481C21.6747 47.0236 21.2346 46.8413 20.7756 46.8413V50.3021ZM13.8541 7.61942C10.3357 7.61942 6.96138 9.01711 4.47348 11.505C1.98558 13.9929 0.587891 17.3672 0.587891 20.8857H4.04865C4.04865 18.2851 5.08172 15.791 6.92061 13.9521C8.75949 12.1133 11.2536 11.0802 13.8541 11.0802V7.61942ZM36.9258 11.0802C39.5264 11.0802 42.0205 12.1133 43.8594 13.9521C45.6982 15.791 46.7313 18.2851 46.7313 20.8857H50.1921C50.1921 17.3672 48.7944 13.9929 46.3065 11.505C43.8186 9.01711 40.4443 7.61942 36.9258 7.61942V11.0802ZM18.4685 46.8413C16.2444 46.8413 14.7493 46.8367 13.6349 46.6868C12.5713 46.5437 12.1145 46.2968 11.8146 45.9946L9.36899 48.4448C10.4187 49.4946 11.7269 49.9214 13.1758 50.1175C14.574 50.3067 16.3413 50.3021 18.4685 50.3021V46.8413ZM7.50941 39.343C7.50941 41.4702 7.50479 43.2375 7.69398 44.6357C7.88778 46.0846 8.31692 47.3927 9.36668 48.4425L11.8146 45.9969C11.5147 45.697 11.2678 45.2402 11.1224 44.1742C10.9748 43.0622 10.9702 41.5671 10.9702 39.343H7.50941ZM39.8098 39.343C39.8098 41.5671 39.8052 43.0622 39.6552 44.1765C39.5122 45.2402 39.2653 45.697 38.9631 45.9969L41.4133 48.4425C42.4631 47.3927 42.8899 46.0846 43.086 44.6357C43.2752 43.2375 43.2706 41.4702 43.2706 39.343H39.8098ZM32.3115 50.3021C34.4387 50.3021 36.206 50.3067 37.6042 50.1175C39.0531 49.9237 40.3635 49.4946 41.4133 48.4425L38.9654 45.9969C38.6655 46.2968 38.2086 46.5437 37.1427 46.6891C36.0307 46.8367 34.5356 46.8413 32.3115 46.8413V50.3021ZM13.8541 11.0802C14.3479 11.0802 14.8301 11.1171 15.303 11.1863L15.8083 7.76246C15.1613 7.66703 14.5081 7.61922 13.8541 7.61942V11.0802ZM25.39 0.697906C22.8585 0.697909 20.3906 1.49076 18.3327 2.96513C16.2749 4.4395 14.7305 6.52135 13.9164 8.91836L17.1926 10.0304C17.7744 8.31805 18.8779 6.8309 20.3481 5.77778C21.8183 4.72466 23.5815 4.15845 25.39 4.15866V0.697906ZM13.9164 8.91836C13.492 10.1721 13.2761 11.4869 13.2773 12.8106H16.7381C16.7381 11.8346 16.8996 10.9002 17.1949 10.0304L13.9164 8.91836ZM36.9258 7.61942C36.2637 7.61942 35.6108 7.66787 34.9717 7.76246L35.4792 11.1863C35.9582 11.1156 36.4417 11.0801 36.9258 11.0802V7.61942ZM25.39 4.15866C27.1981 4.15893 28.9607 4.72536 30.4305 5.77845C31.9003 6.83154 33.0034 8.31843 33.5851 10.0304L36.8612 8.91836C36.0473 6.52172 34.5032 4.44014 32.4459 2.9658C30.3885 1.49146 27.9211 0.698391 25.39 0.697906V4.15866ZM33.5851 10.0304C33.8804 10.9002 34.0419 11.8346 34.0419 12.8106H37.5026C37.5026 11.4516 37.2765 10.1435 36.8612 8.91836L33.5874 10.0304H33.5851ZM10.9702 39.343V31.4617H7.50941V39.343H10.9702ZM9.93194 29.8767C8.18282 29.113 6.69453 27.8556 5.64951 26.2585C4.60448 24.6615 4.04813 22.7942 4.04865 20.8857H0.587891C0.587719 23.4673 1.34069 25.9929 2.75452 28.153C4.16835 30.3131 6.18163 32.0138 8.54763 33.0468L9.93194 29.8767ZM39.8098 31.4617V39.343H43.2706V31.4617H39.8098ZM46.7313 20.8857C46.7318 22.7942 46.1755 24.6615 45.1305 26.2585C44.0854 27.8556 42.5971 29.113 40.848 29.8767L42.2323 33.0468C44.5983 32.0138 46.6116 30.3131 48.0255 28.153C49.4393 25.9929 50.1923 23.4673 50.1921 20.8857H46.7313ZM34.0419 12.8106V13.9641H37.5026V12.8106H34.0419ZM13.2773 12.8106V13.9641H16.7381V12.8106H13.2773ZM32.3115 46.8413H30.0043V50.3021H32.3115V46.8413ZM20.7756 46.8413H18.4685V50.3021H20.7756V46.8413Z" fill="white"/>
</svg>
