<svg width="37" height="37" viewBox="0 0 37 37" fill="none" xmlns="http://www.w3.org/2000/svg">
<path d="M15.5044 1.06054C16.3407 0.375911 17.4024 0 18.5 0C19.5976 0 20.6593 0.375911 21.4956 1.06054L35.3706 12.4181C35.8813 12.8363 36.2915 13.3563 36.5729 13.9422C36.8542 14.5282 37 15.166 37 15.8116V33.5737C37 34.4824 36.6252 35.3539 35.958 35.9965C35.2908 36.639 34.3859 37 33.4423 37H27.75C26.8064 37 25.9015 36.639 25.2343 35.9965C24.5671 35.3539 24.1923 34.4824 24.1923 33.5737V24.6652C24.1923 23.9404 23.8942 23.245 23.3632 22.7313C22.8322 22.2176 22.1116 21.9274 21.359 21.9242H15.6396C14.8872 21.9278 14.167 22.2182 13.6363 22.7318C13.1056 23.2455 12.8077 23.9406 12.8077 24.6652V33.5737C12.8077 34.0236 12.7157 34.4692 12.5369 34.8849C12.3581 35.3006 12.096 35.6783 11.7657 35.9965C11.4353 36.3146 11.0431 36.567 10.6115 36.7392C10.1798 36.9114 9.7172 37 9.25 37H3.55769C2.61413 37 1.70922 36.639 1.04202 35.9965C0.374827 35.3539 0 34.4824 0 33.5737V15.8116C3.74425e-05 15.166 0.145778 14.5282 0.427128 13.9422C0.708478 13.3563 1.11871 12.8363 1.62942 12.4181L15.5044 1.06054Z" fill="white"/>
</svg>
