<?xml version="1.0" encoding="utf-8"?>
<!-- Generator: Adobe Illustrator 24.0.0, SVG Export Plug-In . SVG Version: 6.00 Build 0)  -->
<svg version="1.1" id="Capa_1" xmlns="http://www.w3.org/2000/svg" xmlns:xlink="http://www.w3.org/1999/xlink" x="0px" y="0px"
	 viewBox="0 0 37 37" style="enable-background:new 0 0 37 37;" xml:space="preserve">
<style type="text/css">
	.st0{fill:#4E4E4E;}
</style>
<g>
	<path class="st0" d="M0.2,19.7c0-0.8,0-1.5,0-2.3c0-0.2,0.1-0.5,0.1-0.7c0.4-3.3,1.5-6.3,3.4-8.9c2.9-3.9,6.8-6.3,11.6-7.2
		c0.7-0.1,1.4-0.2,2-0.3c0.8,0,1.5,0,2.3,0c0.1,0,0.2,0.1,0.3,0.1c3.8,0.3,7.3,1.6,10.2,4.1c5.6,4.9,7.8,11.1,6.1,18.4
		c-1.8,8.1-9.2,14-17.5,14.1c-3.8,0-7.2-0.9-10.4-3c-4.3-2.9-7-6.9-7.9-12.1C0.3,21.1,0.3,20.4,0.2,19.7z M3.8,18.6
		c0,8.1,6.6,14.7,14.7,14.7c8.1,0,14.6-6.6,14.7-14.7c0-8.1-6.6-14.7-14.7-14.7C10.4,3.9,3.8,10.5,3.8,18.6z"/>
	<path class="st0" d="M20.3,23.3c1.4-1.4,2.7-2.7,4-4c0.2-0.2,0.3-0.3,0.5-0.4c0.7-0.5,1.7-0.4,2.3,0.2c0.6,0.6,0.7,1.6,0.2,2.3
		c-0.1,0.2-0.3,0.3-0.4,0.5c-2.3,2.3-4.6,4.6-7,7c-1,1-2,1-3,0c-2.4-2.4-4.7-4.7-7.1-7.1c-0.7-0.7-0.8-1.6-0.3-2.4
		c0.6-1,2-1.2,2.9-0.3c1.3,1.3,2.6,2.6,3.8,3.9c0.1,0.1,0.2,0.2,0.3,0.3c0-0.2,0-0.4,0-0.5c0-4.4,0-8.7,0-13.1c0-0.3,0-0.6,0.1-0.8
		c0.2-0.8,1-1.3,1.9-1.3c0.9,0.1,1.6,0.7,1.7,1.6c0,0.2,0,0.4,0,0.6c0,4.4,0,8.7,0,13.1C20.3,22.9,20.3,23.1,20.3,23.3z"/>
</g>
</svg>
