<svg width="64" height="69" viewBox="0 0 64 69" fill="none" xmlns="http://www.w3.org/2000/svg">
<path d="M63.4539 27.6646C60.9619 15.0156 51.4529 4.11994 38.7306 0.926386C31.189 -1.0148 22.6637 0.174961 15.3844 3.74423C-4.68278 13.1997 -3.10888 39.9379 8.62978 55.0916C11.3185 58.5357 14.7286 61.4787 18.6634 63.6704L21.0242 54.7159C21.4833 51.8355 20.7619 49.2055 19.3192 46.7007C16.8272 42.3174 16.1058 37.8088 17.5485 32.862C19.3848 26.5375 20.8931 20.1504 22.5981 13.7632C23.1883 11.6342 24.2376 10.8201 25.8771 11.1959C27.5166 11.5716 28.0412 12.8866 27.5166 14.953C25.8771 21.1522 24.3032 27.3515 22.6637 33.5508C22.5326 34.0517 21.7456 36.3686 23.6474 36.8696C25.418 37.3079 25.8771 34.8658 25.9427 34.4901C27.5821 28.3534 29.156 22.2168 30.7955 16.0801C31.3201 14.0763 32.435 13.2623 34.0089 13.638C35.6484 14.0137 36.3042 15.2661 35.7795 17.3951C35.714 17.7082 35.6484 18.0213 35.5172 18.3344C33.9433 24.2832 32.435 30.232 30.8611 36.1808C30.5988 37.2453 30.3365 38.435 31.3857 38.936C31.5169 38.9986 31.7136 39.0612 31.9104 39.1238C33.4187 39.4996 33.8777 38.3098 34.1401 37.12C34.927 33.9891 35.9763 29.9189 36.8288 26.8506C37.2878 25.1599 38.1404 23.7196 39.9766 23.4065C41.944 23.0308 43.8458 23.4692 44.9606 25.0972C46.0754 26.7879 46.9936 28.6039 47.9117 30.4198C48.4363 31.4844 47.5838 32.6741 46.4033 32.5489C44.3048 32.2984 42.9277 31.2339 42.0095 29.4806C41.8784 29.1675 41.8128 28.8544 41.6816 28.5413C41.5505 28.1656 41.4849 27.7898 41.3538 27.4141C41.3538 27.7898 41.3538 28.1655 41.3538 28.6039C41.3538 28.7291 41.3538 28.917 41.3538 29.0422C40.698 31.547 39.7798 35.0536 39.1241 37.621C38.7962 38.936 37.8125 40.6267 39.8454 41.1276C41.7472 41.6286 41.8128 39.8127 42.2719 38.5603C42.9276 36.6817 43.9769 35.4293 45.3541 34.8658C46.7968 34.3022 48.3051 35.6172 47.9117 37.12C47.5182 38.6855 47.0591 40.3136 46.6657 41.9417C45.5508 46.325 43.0588 49.5812 38.9929 51.6476C36.2386 53.0878 34.4024 55.2795 33.2875 58.0973L30.7955 67.4902C30.7299 67.6154 30.7299 67.7406 30.6644 67.8659C35.7795 68.4294 41.0259 67.5528 45.7476 64.8602C58.2732 57.4085 66.2082 42.0043 63.4539 27.6646Z" fill="white"/>
</svg>
