<svg width="51" height="51" viewBox="0 0 51 51" fill="none" xmlns="http://www.w3.org/2000/svg">
<path fill-rule="evenodd" clip-rule="evenodd" d="M51.0001 25.1443C51.0001 11.2582 39.7432 0.00139447 25.8572 0.00139508C11.9712 0.00139569 0.714354 11.2582 0.714354 25.1443C0.714355 39.0303 11.9712 50.2871 25.8572 50.2871C39.7432 50.2871 51.0001 39.0303 51.0001 25.1443ZM10.7729 18.6862L10.7729 31.1822C10.7729 33.4706 11.6819 35.6652 13.3 37.2833C14.9181 38.9014 17.1127 39.8104 19.4011 39.8104L31.8971 39.8104C36.6575 39.8104 40.5253 35.9426 40.5253 31.1822L40.5253 18.6862C40.5253 16.3979 39.6162 14.2033 37.9981 12.5852C36.38 10.9671 34.1854 10.058 31.8971 10.058L19.4011 10.058C14.6407 10.058 10.7729 13.9258 10.7729 18.6862ZM15.3167 35.2666C14.3123 34.2623 13.7481 32.9001 13.7481 31.4797L13.7481 18.3887C13.7481 15.4283 16.1432 13.0333 19.1035 13.0333L32.1946 13.0333C33.6149 13.0333 34.9771 13.5975 35.9815 14.6018C36.9858 15.6062 37.55 16.9683 37.55 18.3887L37.55 31.4797C37.55 34.4401 35.155 36.8352 32.1946 36.8352L19.1035 36.8352C17.6832 36.8352 16.321 36.2709 15.3167 35.2666ZM16.5242 15.8093C16.1755 16.1581 15.9795 16.631 15.9795 17.1242C15.9795 17.6174 16.1755 18.0904 16.5242 18.4391C16.8729 18.7878 17.3459 18.9837 17.8391 18.9837C18.3322 18.9837 18.8052 18.7878 19.154 18.4391C19.5027 18.0904 19.6986 17.6174 19.6986 17.1242C19.6986 16.631 19.5027 16.1581 19.154 15.8093C18.8052 15.4606 18.3322 15.2647 17.8391 15.2647C17.3459 15.2647 16.8729 15.4606 16.5242 15.8093ZM20.3895 19.6747C18.9946 21.0696 18.211 22.9615 18.211 24.9342C18.211 26.9069 18.9946 28.7988 20.3895 30.1937C21.7845 31.5887 23.6764 32.3723 25.6491 32.3723C27.6218 32.3723 29.5137 31.5887 30.9086 30.1937C32.3035 28.7988 33.0872 26.9069 33.0872 24.9342C33.0872 22.9615 32.3035 21.0696 30.9086 19.6747C29.5137 18.2798 27.6218 17.4961 25.6491 17.4961C23.6764 17.4961 21.7845 18.2798 20.3895 19.6747ZM22.4934 28.0899C21.6564 27.253 21.1862 26.1178 21.1862 24.9342C21.1862 23.7506 21.6564 22.6154 22.4934 21.7785C23.3303 20.9416 24.4654 20.4714 25.6491 20.4714C26.8327 20.4714 27.9678 20.9416 28.8048 21.7785C29.6417 22.6154 30.1119 23.7506 30.1119 24.9342C30.1119 26.1178 29.6417 27.253 28.8048 28.0899C27.9678 28.9269 26.8327 29.3971 25.6491 29.3971C24.4654 29.3971 23.3303 28.9269 22.4934 28.0899Z" fill="#4E4E4E"/>
</svg>
