<svg width="100" height="101" viewBox="0 0 100 101" fill="none" xmlns="http://www.w3.org/2000/svg">
<circle cx="50" cy="50.6204" r="50" fill="white"/>
<path fill-rule="evenodd" clip-rule="evenodd" d="M82 50.6204C82 32.9472 67.6731 18.6204 50 18.6204C32.3269 18.6204 18 32.9473 18 50.6204C18 68.2935 32.3269 82.6204 50 82.6204C67.6731 82.6204 82 68.2935 82 50.6204ZM30.8018 42.4012L30.8018 58.3052C30.8018 61.2177 31.9587 64.0108 34.0181 66.0702C36.0775 68.1296 38.8707 69.2866 41.7831 69.2866L57.6871 69.2866C63.7458 69.2866 68.6684 64.3639 68.6684 58.3052L68.6684 42.4012C68.6684 39.4888 67.5115 36.6956 65.4521 34.6362C63.3927 32.5768 60.5995 31.4199 57.6871 31.4199L41.7831 31.4199C35.7244 31.4199 30.8018 36.3426 30.8018 42.4012ZM36.5848 63.5035C35.3065 62.2253 34.5884 60.4916 34.5884 58.6839L34.5884 42.0226C34.5884 38.2548 37.6367 35.2066 41.4044 35.2066L58.0658 35.2066C59.8735 35.2066 61.6071 35.9247 62.8854 37.2029C64.1636 38.4812 64.8818 40.2148 64.8818 42.0226L64.8818 58.6839C64.8818 62.4516 61.8335 65.4999 58.0658 65.4999L41.4044 65.4999C39.5967 65.4999 37.863 64.7818 36.5848 63.5035ZM38.1216 38.7397C37.6778 39.1836 37.4284 39.7855 37.4284 40.4132C37.4284 41.0409 37.6778 41.6429 38.1216 42.0867C38.5654 42.5305 39.1674 42.7799 39.7951 42.7799C40.4228 42.7799 41.0247 42.5305 41.4686 42.0867C41.9124 41.6429 42.1618 41.0409 42.1618 40.4132C42.1618 39.7855 41.9124 39.1836 41.4686 38.7397C41.0247 38.2959 40.4228 38.0466 39.7951 38.0466C39.1674 38.0466 38.5654 38.2959 38.1216 38.7397ZM43.0411 43.6593C41.2658 45.4346 40.2684 47.8425 40.2684 50.3532C40.2684 52.8639 41.2658 55.2718 43.0411 57.0472C44.8165 58.8225 47.2244 59.8199 49.7351 59.8199C52.2458 59.8199 54.6537 58.8225 56.429 57.0472C58.2044 55.2718 59.2018 52.8639 59.2018 50.3532C59.2018 47.8425 58.2044 45.4346 56.429 43.6593C54.6537 41.8839 52.2458 40.8866 49.7351 40.8866C47.2244 40.8866 44.8165 41.8839 43.0411 43.6593ZM45.7187 54.3696C44.6535 53.3044 44.0551 51.8597 44.0551 50.3532C44.0551 48.8468 44.6535 47.4021 45.7187 46.3369C46.7839 45.2716 48.2287 44.6732 49.7351 44.6732C51.2415 44.6732 52.6862 45.2716 53.7515 46.3369C54.8167 47.4021 55.4151 48.8468 55.4151 50.3532C55.4151 51.8597 54.8167 53.3044 53.7515 54.3696C52.6862 55.4348 51.2415 56.0332 49.7351 56.0332C48.2287 56.0332 46.7839 55.4348 45.7187 54.3696Z" fill="#FF7C33"/>
</svg>
