<?xml version="1.0" encoding="utf-8"?>
<!-- Generator: Adobe Illustrator 24.0.0, SVG Export Plug-In . SVG Version: 6.00 Build 0)  -->
<svg version="1.1" id="Capa_1" xmlns="http://www.w3.org/2000/svg" xmlns:xlink="http://www.w3.org/1999/xlink" x="0px" y="0px"
	 viewBox="0 0 350 150" style="enable-background:new 0 0 350 150;" xml:space="preserve">
<style type="text/css">
	.st0{fill:#FFD700;}
	.st1{fill:#5B5B5B;}
</style>
<path class="st0" d="M49.9,75.9c-2.6-1-5-0.2-7,1.6c-3.6,3.7-22.1,24.5-24.3,10.1c-1-4-1.2-8.1-1.2-12.5c0-2.8-3.6-5.5-6.5-5.1
	c-3.4,0.4-5.4,2.9-5.4,6c-0.1,4.3,0.3,8.6,1.3,12.9c1.2,6.9,4.6,14.9,12.6,16.2c6.2,1,13.3-2.3,17.2-6.5c-1.3,3.6-3.1,11.7-4.4,15.1
	c-4.6,7.9-16,6.6-23.2,3.3c-3-1.3-7-0.2-8.3,2.6c-1.3,2.7-0.2,6.1,3,7.5c14.4,6.4,35.5,7.4,40.3-10.7c1.5-4.8,4-13.8,5.3-18.5
	c1.4-5.3,2.8-10.7,4.2-16.1C54,79.5,52,76.7,49.9,75.9z"/>
<path class="st0" d="M151.3,101.7c-0.4-4.6-1.7-15.4-2.8-19.9c-0.7-2.8-4-5-7.1-4.1c-3.1,0.9-5,3.7-4.4,6.7
	c1.9,6.8,3.3,21.3,2.2,28.4c-0.9,5.8-3.6,11-9.9,10.7c-5.5-0.3-8.3-5.3-9-9.3c-1.4-8,0.6-14.3,1.9-22.3c0.5-2.9-2.6-5.8-5.5-5.9
	c-3.4-0.1-5.7,2.1-6.3,5.2c-0.8,3.9-1.3,7.8-1.8,11.6c-1.5,10.9-1,22.4,9.9,29c7.4,4.3,16.9,3.7,23.9-1c5.4-3.6,8.6-11.9,9.1-17.8
	C151.7,109.3,151.6,105.4,151.3,101.7z"/>
<path class="st0" d="M192.5,121.7c-1.8-0.4-7.5-1.9-9.1-2.4c5.7-3.5,10.9-11.1,10.9-17.7c0-7.9-5.3-15-13-17.9
	c-4.4-1.7-9.4-2.4-13.7-2.1c-1-0.8-2.2-1.3-3.7-1.3c-3,0.1-6.1,2.4-5.9,5.4c0.5,15.1,0.9,43.6,1,58.6c0,2.9,2.8,5.7,6.1,5.6
	c3.2,0,6.3-2.4,6.3-5.5c0-1.3-0.1-16-0.1-17.2c4.7,1.6,13.4,4.1,18.1,5.2c3.2,0.7,6.9-1,7.6-4C197.5,125.6,195.8,122.5,192.5,121.7z
	 M178.7,108.3c-2.1,2.2-4.9,3.6-7.9,4.4c-0.2-6.7-0.5-13.5-0.8-20.2h0.1c3.1,0.5,6.1,1,8.3,2.2C184.1,97.8,182.3,104.8,178.7,108.3z
	"/>
<path class="st0" d="M232.5,117c-3.4-5.9-9.9-9.4-15.8-12.8c-12.4-5,5.9-11.2,9.8-11.6c3-0.3,5.8-2.9,5.5-5.8
	c-0.3-2.9-3-5.4-6.2-5.3c-11.4,0.4-30,9.7-24.5,23.5c2.1,5.4,9.7,9.3,15,12.6c2.1,1.3,5.4,3.6,3.3,6.1c-2.4,2.8-8.5,1.7-11.7,1.1
	c-3.1-0.6-6.8,1.1-7.5,4c-0.7,2.7,1.2,6.1,4.5,6.7c9.1,1.5,23.4,1.1,27.3-9C233.8,123.5,234,120.1,232.5,117z"/>
<path class="st0" d="M255,122.7c0.1,0,0.1,0,0.2,0C255.2,122.7,255.1,122.7,255,122.7z M254.6,122.5c-0.1,0-0.1,0-0.1,0
	S254.6,122.5,254.6,122.5c0.1,0,0.1,0,0.2,0C254.7,122.5,254.7,122.5,254.6,122.5z M253.3,118.9c0,0.1,0.1,0.4,0.2,0.5
	C253.5,119.8,253.6,119.4,253.3,118.9z M254.3,89.2c1.7,0.1,3.3,0.3,4.8,0.4c3.5,0.3,6.9,0.6,10.3,0.9c3,0.2,6.6-1.5,6.9-4.6
	c0.3-2.7-1.8-6.2-4.9-6.5c-3.3-0.3-6.8-0.5-10.1-0.8c-3.3-0.3-6.8-0.9-10.2-0.9c-4.1,0-8.1,1.7-10,5.2c-1.8,3-1.6,7.1-1.7,10.4
	c-0.3,6.4-0.1,12.9,0.7,19.3c0.4,3.4,1,6.7,1.8,10.1c0.7,2.9,2.1,6,4.7,8.1c7.4,5.3,16.9,2.1,24.7-0.5c3.1-0.8,4.9-4.7,3.6-7.2
	c-1.4-2.8-4.7-4.1-8-3.1c-2.9,0.9-5.9,1.7-8.8,2.4c0,0-0.9,0.2-0.9,0.2c-0.5,0-1,0.1-1.5,0.1c-0.1,0-0.1,0-0.2,0c-0.1,0-0.2,0-0.2,0
	c0.1,0,0.1,0,0.1,0c-0.1,0-0.2,0-0.3,0c0,0,0,0,0-0.1c-0.1,0-0.1,0-0.2,0c-0.1,0-0.1,0-0.1-0.1l-0.1,0c-0.1,0-0.2-0.1-0.2-0.2
	c-0.3-0.8-0.8-1.8-1-2.7c0,0,0,0,0-0.1c0,0-0.1,0-0.1-0.1c0-0.1,0-0.2-0.1-0.4c0,0,0,0,0,0c-0.2-0.7-0.3-1.3-0.3-1.8
	c-0.1-0.7-0.3-1.7-0.5-2.5c2.5-0.4,5.1-0.7,7.6-1c3.1-0.4,6-3.1,5.5-6.1c-0.5-2.9-3.2-5.4-6.5-5c-2.6,0.3-5.2,0.7-7.9,1.1
	c-0.2-2.5-0.3-5-0.3-7.3c0-1.3,0.1-2.8,0.1-4.1C251.2,88.5,250.9,88.9,254.3,89.2z"/>
<path class="st0" d="M307.9,119.5c-2.1,0-5.3,0.5-7.3,0.8c-1.9,0.2-2.7-2.1-2.9-5c-0.9-9.9-0.4-19.7,0.6-29.7c0.5-2.9-1.9-6-5-6.3
	c-3.1-0.3-6.3,1.7-6.8,4.8c-1.6,12.4-2.2,24.4-0.2,36.4c0.7,4.2,3.1,8.8,8.1,10.3c2.5,0.7,5.2,1,7.9,0.6c2-0.2,4.4-0.5,6.5-1.1
	C316.4,128.1,314.7,119.3,307.9,119.5z"/>
<path class="st0" d="M349.8,73.1c-0.4-1.3-1.1-2.8-2.4-3.5c-1.5-0.9-2.8-1-4.5-0.9c-5.2,0.2-10.5,0.9-15.7,1.7
	c-2.8,0.4-5.8,0.9-8.3,2.3c-2.8,1.6-4.5,4.3-5.1,7.5c-0.4,2.3-0.1,4.8,0.3,6.9c1.8,13.4,5,26.6,9.1,39.8c0.4,1.2,2.1,2.4,3.3,2.8
	c1.5,0.5,3.4,0.6,4.9-0.2c3.3-1.4,3.9-4.5,3.1-7.3c-1.3-4-2.5-8.1-3.5-12.1c-0.1-0.2-0.2-0.4-0.2-0.6c3.9-0.6,4.4-0.4,8.3-1
	c3.2-0.5,5.7-3.7,5.1-6.5c-0.7-2.9-3.6-5-7.1-4.4c-4.1,0.7-4.6,0.4-8.8,1.1c-1.3-7-1.8-11.8-2.6-16.6c6.7-1.2,13.1-1.9,19.5-2.4
	c1.5-0.1,3.2-1.3,3.9-2.3C349.8,76.2,350.3,74.5,349.8,73.1z"/>
<path class="st0" d="M102.6,102.4c-1.9-9.7-9.2-18.1-19-20.6c-5.8-1.5-12.4-0.6-18,2.2c-15.4,7.3-14.2,27.8-5.2,39.5
	c2.1,2.6,4.7,4.9,7.7,6.6l1.8-6.9c0.4-2.2-0.2-4.2-1.3-6.2c-1.9-3.4-2.5-6.8-1.4-10.6c1.4-4.9,2.6-9.8,3.9-14.7
	c0.5-1.6,1.3-2.3,2.5-2C75,90,75.4,91,75,92.6c-1.3,4.8-2.5,9.5-3.7,14.3c-0.1,0.4-0.7,2.2,0.8,2.6c1.4,0.3,1.7-1.5,1.8-1.8
	c1.3-4.7,2.5-9.4,3.7-14.2c0.4-1.5,1.3-2.2,2.5-1.9c1.3,0.3,1.8,1.3,1.4,2.9c-0.1,0.2-0.1,0.5-0.2,0.7c-1.2,4.6-2.4,9.1-3.6,13.7
	c-0.2,0.8-0.4,1.7,0.4,2.1c0.1,0,0.3,0.1,0.4,0.1c1.2,0.3,1.5-0.6,1.7-1.5c0.6-2.4,1.4-5.5,2.1-7.9c0.4-1.3,1-2.4,2.4-2.6
	c1.5-0.3,3,0,3.8,1.3c0.9,1.3,1.6,2.7,2.3,4.1c0.4,0.8-0.3,1.7-1.2,1.6c-1.6-0.2-2.7-1-3.4-2.4c-0.1-0.2-0.2-0.5-0.3-0.7
	c-0.1-0.3-0.2-0.6-0.3-0.9c0,0.3,0,0.6,0,0.9c0,0.1,0,0.2,0,0.3c-0.5,1.9-1.2,4.6-1.7,6.6c-0.3,1-1,2.3,0.6,2.7c1.5,0.4,1.5-1,1.9-2
	c0.5-1.4,1.3-2.4,2.4-2.8c1.1-0.4,2.3,0.6,2,1.7c-0.3,1.2-0.7,2.5-1,3.7c-0.9,3.4-2.8,5.9-5.9,7.5c-2.1,1.1-3.5,2.8-4.4,5l-1.9,7.2
	c-0.1,0.1-0.1,0.2-0.1,0.3c3.9,0.4,8-0.2,11.6-2.3C98.6,125.2,104.7,113.4,102.6,102.4z"/>
<path class="st1" d="M129.6,54.4c-1.2-3.2-4.6-5.8-7.6-4.2c-7.1,3.8-14.6,6.4-21.2,3.9c-12.4-4.9-8-19.7-1.3-26.9
	c2.6-2.8,5.7-4.8,8.8-5.4c3.2-0.7,6.7-0.1,9.1,2.3c0.9,1.2,3,1.8,4.3,1.7c1.5-0.1,3.1-1,4-2.3c1-1.4,1.6-3.2,1.3-5.1
	c-0.2-1.8-0.9-3.3-2.1-4.7c-8.4-9.7-21.4-6.8-30.2,0.1c-15.9,13-20.2,45.9,2.5,53.2c9.2,3,20.4,0.5,28.8-3.9
	C129,61.8,130.9,58,129.6,54.4z"/>
<path class="st1" d="M171,8.3c-3.7,0.1-6,2.6-6.3,6c-0.5,5.8-0.5,9.5-0.7,15.4c-6.5,0.8-9.2,1.6-15.8,2.5c-0.3-7-1-19.1-1.1-26.1
	c0-3.2-2.9-6.2-6.3-6c-3.3,0.1-6.3,2.6-6.2,6c0.1,16.3,1.4,37.8,3,54.1c0.3,3.1,2.5,6.2,6.3,6c3.1-0.1,6.5-2.6,6.3-6
	c-0.5-5.3-1-10.6-1.3-16c6.1-0.9,8.5-1.5,14.5-2.3c-0.2,7-0.2,14-0.1,21c0,3.2,2.8,6.2,6.3,6c3.4-0.1,6.4-2.6,6.4-6
	c-0.4-16.9-0.2-31.7,1.2-48.5C177.5,11.1,174.2,8.1,171,8.3z"/>
<path class="st1" d="M200.2,49.5c0.1,0,0.2,0,0.2,0C200.4,49.5,200.3,49.5,200.2,49.5z M199.5,49.4L199.5,49.4c0.1,0,0.1,0,0.2,0
	C199.7,49.4,199.6,49.4,199.5,49.4z M199.2,49c-0.1,0-0.1,0-0.1,0S199.2,49.1,199.2,49c0.1,0,0.1,0,0.2,0
	C199.3,49.1,199.3,49,199.2,49z M198.2,45.1c0,0.2,0.1,0.4,0.1,0.6C198.3,46,198.4,45.7,198.2,45.1z M198.2,16
	c0.5-3.9,0-3.5,3.7-2.9c1.7,0.3,3.4,0.6,5,0.9c3.7,0.7,2.2,0.6,5.7,1.3c3.1,0.6,7-0.9,7.8-4.1c0.6-3-1.1-6.7-4.4-7.5
	c-3.6-0.6-2.1-0.5-5.7-1.2c-3.6-0.8-7.2-1.6-10.8-1.8c-4.4-0.4-8.8,1.2-11.1,4.8c-2.2,3.2-2.3,7.5-2.6,11.1
	c-0.9,7-1.1,13.9-0.7,20.9c0.2,3.7,0.6,7.2,1.1,11c0.5,3.2,1.8,6.6,4.2,9.1c6.6,6.6,16.9,3.2,24.9,1.6c3.2-0.6,5.4-4.4,4.4-7.4
	c-1.2-3.2-4.3-4.9-7.8-4.1c-3,0.7-6.1,1.3-9.1,1.7c0,0-0.9,0.1-1,0.1H200c-0.1,0-0.2,0-0.3,0c0.1,0,0.1,0,0.1,0c-0.1,0-0.2,0-0.2,0
	h-0.1v-0.1c-0.1,0-0.1-0.1-0.2-0.1c-0.1,0-0.1,0-0.1-0.1l-0.1,0c-0.1-0.1-0.2-0.1-0.2-0.3c-0.3-0.9-0.6-2-0.8-3c0,0,0,0,0-0.1
	c0,0-0.1-0.1-0.1-0.2V45c-0.1-0.8-0.2-1.3-0.2-2c-0.1-0.8-0.2-1.8-0.3-2.7c2.6-0.2,5.3-0.3,7.9-0.4c3.2-0.2,6.5-2.7,6.3-6.1
	c-0.2-3.2-2.8-6.2-6.3-6c-2.8,0.1-5.5,0.2-8.3,0.5c0-2.6,0.2-5.3,0.4-7.9C197.9,19.1,198,17.5,198.2,16z"/>
<path class="st1" d="M267,10.9c-1.3-1.3-2.6-1.7-4.4-2.1c-5.5-1-11.1-1.6-16.8-1.9c-3-0.1-6.3-0.3-9.2,0.6c-3.4,1.2-5.7,3.5-7,6.8
	c-0.9,2.4-1.1,5-1.3,7.4c-1.4,15.9-0.6,27.8,0.7,41.8c0.1,1.3,1.5,3,2.7,3.7c1.4,0.9,3.2,1.3,4.8,0.8c3.5-0.8,5.1-3.8,4.7-7.1
	c-0.1-4.8-0.6-12.4-0.7-16.8c-0.1-0.2-0.1-0.5-0.1-0.7c4.1,0.2,8.3,0.4,12.3,0.7c3.3,0.2,6.7-2.5,6.7-5.6c0.1-3.2-2.4-6.1-6-6.3
	c-4.3-0.2-8.6-0.5-13-0.8c0.4-7.7,0.6-7.4,0.9-12.7c7.2,0.2,13.9,0.9,20.6,2c1.6,0.2,3.5-0.6,4.6-1.4c1.1-1.1,2-2.6,2-4.2
	C268.6,13.7,268.2,12,267,10.9z"/>
<path class="st1" d="M221.5,68.5c-0.3-1.2-0.9-2.5-2-3.2c-1.3-0.9-2.4-1-4-0.9c-4.7,0.2-9.4,0.6-14,1.3c-2.5,0.4-5.1,0.8-7.4,2.1
	c-2.5,1.5-5.3,1.7-4.4,6.7c0.7,3.9,10.4,1.6,10.4,1.6c5.8-1.1,11.4-1.6,17.1-1.9c1.3,0,2.8-1.1,3.5-1.9
	C221.4,71.2,221.8,69.8,221.5,68.5z"/>
</svg>
