<svg width="350" height="150" viewBox="0 0 350 150" fill="none" xmlns="http://www.w3.org/2000/svg">
<path d="M49.8574 75.8937C47.2352 74.9307 44.8651 75.653 42.848 77.4827C39.2677 81.1422 20.7106 101.943 18.5423 87.5943C17.5842 83.5497 17.3824 79.4569 17.3824 75.1233C17.3824 72.2825 13.8021 69.6342 10.9278 70.0194C7.5492 70.4527 5.53212 72.9566 5.4817 75.99C5.38084 80.3236 5.78426 84.609 6.74237 88.8944C7.90219 95.8281 11.3312 103.773 19.2987 105.073C25.4507 106.084 32.5609 102.762 36.4942 98.6208C35.1831 102.184 33.3678 110.37 32.0567 113.74C27.4678 121.685 16.0713 120.385 8.80987 117.014C5.83469 115.714 1.85096 116.822 0.539863 119.566C-0.771236 122.311 0.338155 125.633 3.51505 127.03C17.8867 133.434 38.9652 134.397 43.8566 116.34C45.3189 111.573 47.8907 102.569 49.1514 97.8022C50.5633 92.5057 51.9753 87.1128 53.3872 81.6718C53.9924 79.505 52.0257 76.6641 49.8574 75.8937Z" fill="#558332"/>
<path d="M151.267 101.654C150.914 97.0319 149.552 86.2462 148.443 81.7682C147.737 78.9754 144.409 76.7605 141.383 77.6272C138.257 78.4939 136.341 81.2867 136.946 84.3201C138.812 91.1575 140.274 105.651 139.165 112.681C138.257 118.507 135.534 123.659 129.23 123.37C123.683 123.081 120.91 118.026 120.254 114.029C118.893 105.988 120.86 99.7283 122.12 91.6872C122.574 88.7982 119.498 85.861 116.624 85.8128C113.195 85.7165 110.925 87.8833 110.371 90.9649C109.614 94.817 109.06 98.7172 108.555 102.569C107.093 113.451 107.547 124.959 118.489 131.604C125.852 135.938 135.382 135.263 142.392 130.641C147.838 127.03 151.015 118.748 151.469 112.825C151.721 109.262 151.57 105.362 151.267 101.654Z" fill="#558332"/>
<path d="M192.515 121.685C190.7 121.3 185.052 119.759 183.388 119.278C189.086 115.763 194.33 108.155 194.33 101.558C194.33 93.6616 189.036 86.5835 181.371 83.6944C176.984 82.0092 171.941 81.2869 167.655 81.5758C166.697 80.8054 165.486 80.2276 163.923 80.2758C160.897 80.3721 157.872 82.6351 157.973 85.7168C158.477 100.788 158.83 129.341 158.931 144.364C158.931 147.301 161.704 150.094 165.032 149.998C168.26 149.95 171.285 147.638 171.285 144.509C171.285 143.208 171.235 128.523 171.235 127.271C175.925 128.908 184.648 131.412 189.338 132.471C192.515 133.193 196.247 131.46 196.902 128.474C197.457 125.634 195.793 122.504 192.515 121.685ZM178.749 108.348C176.681 110.514 173.807 111.959 170.832 112.777C170.63 106.036 170.378 99.2952 170.075 92.5541H170.176C173.302 93.0356 176.278 93.5171 178.496 94.7209C184.094 97.8025 182.278 104.833 178.749 108.348Z" fill="#558332"/>
<path d="M232.453 117.015C229.024 111.092 222.519 107.625 216.619 104.255C204.264 99.2954 222.519 93.084 226.452 92.6507C229.427 92.3136 232.301 89.7616 231.999 86.8244C231.696 83.8873 229.024 81.4316 225.847 81.5279C214.4 81.9612 195.843 91.2061 201.339 105.025C203.457 110.418 211.072 114.367 216.367 117.641C218.434 118.941 221.762 121.252 219.695 123.756C217.325 126.549 211.223 125.441 207.996 124.815C204.92 124.189 201.238 125.875 200.532 128.86C199.877 131.604 201.692 134.975 205.071 135.601C214.148 137.142 228.469 136.708 232.402 126.645C233.764 123.467 233.966 120.096 232.453 117.015Z" fill="#558332"/>
<path d="M255.043 122.744C255.094 122.744 255.144 122.744 255.195 122.792C255.195 122.744 255.144 122.744 255.043 122.744ZM254.64 122.455C254.589 122.455 254.539 122.455 254.539 122.455C254.539 122.455 254.589 122.503 254.64 122.455C254.69 122.503 254.741 122.503 254.791 122.503C254.741 122.503 254.69 122.455 254.64 122.455ZM253.278 118.892C253.278 119.036 253.379 119.277 253.43 119.421C253.53 119.758 253.581 119.421 253.278 118.892ZM254.287 89.1829C255.951 89.3273 257.565 89.4718 259.128 89.6162C262.607 89.9533 265.986 90.2422 269.415 90.5311C272.441 90.7718 275.97 88.9903 276.273 85.9568C276.576 83.2122 274.508 79.7454 271.382 79.5046C268.104 79.2157 264.624 79.0231 261.246 78.6861C257.918 78.349 254.438 77.8193 251.06 77.8193C246.975 77.8193 242.991 79.5528 241.025 83.0196C239.26 86.0531 239.461 90.0977 239.31 93.372C239.008 99.776 239.209 106.276 239.966 112.68C240.369 116.051 240.974 119.373 241.781 122.744C242.437 125.681 243.899 128.714 246.471 130.833C253.833 136.178 263.414 132.904 271.129 130.303C274.256 129.485 276.071 125.633 274.76 123.081C273.348 120.24 270.02 118.988 266.793 119.951C263.868 120.818 260.943 121.636 258.018 122.31C258.018 122.31 257.161 122.551 257.111 122.551C256.657 122.599 256.102 122.647 255.598 122.696C255.548 122.696 255.497 122.696 255.447 122.696C255.396 122.696 255.295 122.696 255.245 122.696C255.295 122.696 255.295 122.744 255.295 122.744C255.195 122.744 255.144 122.696 255.043 122.696C255.043 122.647 255.043 122.647 255.043 122.599C254.942 122.599 254.942 122.551 254.842 122.551C254.791 122.503 254.791 122.503 254.741 122.455L254.69 122.407C254.589 122.359 254.539 122.262 254.489 122.166C254.186 121.347 253.732 120.384 253.48 119.47C253.48 119.47 253.48 119.47 253.48 119.373C253.48 119.373 253.379 119.325 253.379 119.229C253.379 119.084 253.379 118.988 253.329 118.844C253.329 118.844 253.329 118.844 253.329 118.795C253.178 118.121 253.077 117.544 253.026 117.014C252.925 116.292 252.724 115.329 252.572 114.51C255.094 114.077 257.716 113.836 260.187 113.499C263.263 113.114 266.188 110.417 265.683 107.384C265.23 104.495 262.456 101.991 259.178 102.376C256.556 102.713 253.934 103.05 251.312 103.484C251.11 101.028 251.009 98.4759 251.06 96.1647C251.06 94.8646 251.11 93.372 251.11 92.0719C251.211 88.5088 250.858 88.894 254.287 89.1829Z" fill="#558332"/>
<path d="M307.942 119.47C305.875 119.518 302.647 120 300.681 120.241C298.815 120.481 298.008 118.122 297.756 115.233C296.899 105.362 297.353 95.5395 298.311 85.5242C298.815 82.587 296.445 79.5053 293.318 79.2164C290.192 78.9275 287.015 80.9017 286.561 83.9833C284.998 96.4062 284.393 108.396 286.359 120.337C287.065 124.526 289.486 129.149 294.478 130.641C297 131.363 299.672 131.604 302.345 131.267C304.311 131.026 306.732 130.786 308.85 130.208C316.363 128.137 314.699 119.278 307.942 119.47Z" fill="#558332"/>
<path d="M349.849 73.0528C349.496 71.7046 348.739 70.2601 347.479 69.586C345.966 68.7193 344.705 68.5748 342.991 68.6711C337.797 68.9119 332.451 69.5378 327.257 70.3564C324.433 70.7898 321.408 71.2231 318.987 72.6676C316.163 74.3048 314.449 76.953 313.894 80.131C313.491 82.4422 313.844 84.8979 314.146 87.0165C315.911 100.45 319.139 113.644 323.223 126.789C323.576 127.993 325.341 129.196 326.551 129.582C328.014 130.063 329.98 130.159 331.443 129.389C334.721 127.944 335.376 124.911 334.519 122.07C333.258 118.074 331.998 113.981 330.989 109.984C330.888 109.792 330.838 109.551 330.787 109.406C334.721 108.781 335.225 109.021 339.057 108.395C342.234 107.914 344.806 104.688 344.15 101.895C343.444 99.006 340.52 96.8874 337.04 97.4652C332.956 98.1393 332.401 97.8985 328.266 98.5245C327.005 91.5426 326.501 86.7276 325.694 81.9125C332.35 80.7088 338.755 79.9865 345.159 79.5532C346.672 79.4569 348.386 78.3013 349.092 77.2901C349.798 76.1826 350.252 74.4974 349.849 73.0528Z" fill="#558332"/>
<path d="M102.602 102.377C100.686 92.6502 93.3742 84.272 83.5914 81.8163C77.7923 80.3237 71.2368 81.2385 65.6394 83.9831C50.2088 91.2538 51.419 111.814 60.4454 123.467C62.5129 126.115 65.1351 128.378 68.1607 130.063L69.9761 123.178C70.3291 120.963 69.7744 118.94 68.665 117.014C66.7488 113.644 66.1941 110.177 67.3035 106.373C68.7154 101.51 69.8752 96.5986 71.1863 91.6872C71.6402 90.0501 72.447 89.4241 73.7077 89.713C74.9684 90.0019 75.3718 91.0131 74.9684 92.6021C73.7077 97.369 72.4974 102.136 71.2368 106.903C71.1359 107.288 70.5308 109.07 71.9932 109.455C73.3547 109.792 73.7077 107.914 73.7581 107.625C75.0188 102.906 76.229 98.1875 77.4897 93.4688C77.8931 91.9279 78.7504 91.302 79.9606 91.5909C81.2213 91.8798 81.7256 92.8428 81.3222 94.4799C81.2717 94.7207 81.2213 94.9614 81.1204 95.2022C79.9102 99.7765 78.7504 104.351 77.5401 108.925C77.3384 109.744 77.1367 110.659 77.9436 111.044C78.0444 111.092 78.1957 111.14 78.347 111.188C79.5068 111.477 79.8598 110.562 80.0615 109.647C80.6666 107.24 81.4734 104.11 82.129 101.751C82.482 100.451 83.1375 99.3431 84.5495 99.1024C86.0623 98.8135 87.5247 99.1505 88.3819 100.402C89.2392 101.703 89.9452 103.099 90.6511 104.495C91.0545 105.314 90.399 106.229 89.4913 106.132C87.8776 105.94 86.8187 105.121 86.1127 103.773C86.0119 103.532 85.9614 103.291 85.8606 103.051C85.7597 102.762 85.7093 102.473 85.6084 102.184C85.6084 102.473 85.6084 102.762 85.6084 103.099C85.6084 103.195 85.6084 103.34 85.6084 103.436C85.1042 105.362 84.3982 108.058 83.8939 110.033C83.6418 111.044 82.8854 112.344 84.4486 112.729C85.911 113.114 85.9614 111.718 86.3144 110.755C86.8187 109.31 87.6255 108.347 88.6845 107.914C89.7939 107.481 90.9537 108.492 90.6511 109.647C90.3486 110.851 89.9956 112.103 89.693 113.355C88.8358 116.725 86.9195 119.229 83.7931 120.818C81.6751 121.926 80.2632 123.611 79.4059 125.778L77.4897 133C77.4393 133.097 77.4393 133.193 77.3889 133.289C81.3222 133.723 85.3563 133.049 88.987 130.978C98.6186 125.248 104.72 113.403 102.602 102.377Z" fill="#558332"/>
<path d="M129.581 54.37C128.421 51.192 124.942 48.5438 121.966 50.1327C114.907 53.8885 107.393 56.5367 100.787 54.0329C88.3822 49.1697 92.7693 34.3394 99.4761 27.1649C102.048 24.3722 105.174 22.3499 108.301 21.7239C111.528 21.0017 115.008 21.6276 117.428 24.0352C118.336 25.2389 120.454 25.8167 121.714 25.7204C123.177 25.6241 124.841 24.7093 125.698 23.4092C126.656 22.0128 127.261 20.2313 127.009 18.3052C126.807 16.4755 126.101 15.031 124.942 13.6346C116.571 3.95639 103.51 6.79726 94.736 13.7791C78.8011 26.7316 74.5652 59.6665 97.2573 66.9373C106.485 69.9226 117.68 67.4188 126.101 63.0371C128.976 61.8333 130.942 58.0294 129.581 54.37Z" fill="#5B5B5B"/>
<path d="M171.032 8.29073C167.35 8.38703 165.031 10.8909 164.779 14.2614C164.274 20.0876 164.325 23.7952 164.073 29.6214C157.618 30.44 154.845 31.2104 148.239 32.1252C147.987 25.1434 147.281 13.0095 147.18 5.97951C147.18 2.80157 144.305 -0.183763 140.927 0.00883952C137.599 0.105141 134.674 2.65712 134.724 5.97951C134.825 22.3025 136.136 43.8258 137.75 60.0525C138.002 63.1342 140.271 66.2158 144.003 66.0232C147.129 65.9269 150.508 63.3749 150.256 60.0525C149.751 54.7078 149.298 49.4113 148.945 44.0666C155.046 43.1517 157.467 42.5739 163.468 41.7553C163.266 48.7372 163.266 55.719 163.367 62.7971C163.367 65.9751 166.14 68.9604 169.62 68.7678C172.998 68.6233 175.973 66.1195 175.973 62.7971C175.62 45.8963 175.822 31.0659 177.184 14.2614C177.537 11.0835 174.158 8.09813 171.032 8.29073Z" fill="#5B5B5B"/>
<path d="M200.178 49.4591C200.228 49.5072 200.329 49.5072 200.329 49.5072C200.38 49.5072 200.279 49.5072 200.178 49.4591ZM199.522 49.3628H199.573C199.623 49.3628 199.623 49.3628 199.674 49.4109C199.674 49.3628 199.623 49.3628 199.522 49.3628ZM199.22 49.0257C199.119 48.9776 199.119 48.9776 199.119 48.9776C199.119 48.9776 199.169 49.0739 199.22 49.0257C199.27 49.0739 199.321 49.0739 199.371 49.0739C199.321 49.0739 199.27 49.0257 199.22 49.0257ZM198.161 45.0774C198.161 45.27 198.262 45.5108 198.262 45.6552C198.312 45.9923 198.413 45.7033 198.161 45.0774ZM198.161 16.0426C198.615 12.1424 198.161 12.5276 201.842 13.1536C203.557 13.4907 205.221 13.7314 206.885 14.0685C210.566 14.7426 209.104 14.6463 212.633 15.3204C215.76 15.8982 219.592 14.4055 220.399 11.1794C221.004 8.1941 219.34 4.43836 215.962 3.66795C212.381 3.09015 213.844 3.13829 210.213 2.51234C206.633 1.74193 203.052 0.923377 199.422 0.682624C194.984 0.24927 190.647 1.83824 188.277 5.49768C186.109 8.67561 186.008 13.0092 185.655 16.5723C184.798 23.5541 184.596 30.4878 184.949 37.4696C185.1 41.1291 185.554 44.6922 186.058 48.4479C186.563 51.674 187.823 55.0446 190.244 57.5002C196.85 64.145 207.137 60.6782 215.155 59.0892C218.382 58.5114 220.55 54.6594 219.592 51.674C218.382 48.4479 215.256 46.7627 211.827 47.5331C208.801 48.2072 205.725 48.785 202.699 49.2665C202.699 49.2665 201.842 49.4109 201.741 49.4109H199.976C199.875 49.4109 199.825 49.411 199.724 49.3628C199.775 49.3628 199.775 49.4109 199.775 49.4109C199.724 49.4109 199.623 49.3628 199.573 49.3628H199.522V49.2665C199.422 49.2665 199.422 49.1702 199.321 49.1702C199.27 49.122 199.27 49.122 199.22 49.0739L199.169 49.0257C199.069 48.9294 199.018 48.8813 198.968 48.7368C198.716 47.822 198.363 46.7627 198.161 45.7515C198.161 45.7515 198.161 45.7515 198.161 45.6552C198.161 45.6552 198.06 45.5589 198.06 45.4626V45.0293C197.959 44.2588 197.858 43.681 197.858 43.0551C197.757 42.2365 197.707 41.2254 197.606 40.3105C200.228 40.0697 202.901 39.9734 205.523 39.8771C208.751 39.6845 211.978 37.1326 211.776 33.8102C211.574 30.6322 209.003 27.6469 205.523 27.8395C202.75 27.9358 200.027 28.0803 197.253 28.321C197.253 25.6727 197.404 22.9763 197.606 20.4243C197.909 19.0761 197.959 17.4872 198.161 16.0426Z" fill="#5B5B5B"/>
<path d="M267.045 10.9385C265.734 9.63845 264.423 9.2051 262.607 8.86805C257.06 7.90504 251.463 7.27908 245.765 6.99018C242.739 6.84573 239.512 6.65312 236.587 7.56798C233.208 8.72359 230.889 11.083 229.578 14.3572C228.67 16.7166 228.519 19.3649 228.266 21.7242C226.855 37.662 227.712 49.5071 228.972 63.567C229.073 64.9153 230.435 66.5524 231.645 67.2265C233.007 68.1413 234.872 68.5747 236.486 68.045C240.016 67.2265 241.579 64.2893 241.176 60.9669C241.125 56.2 240.571 48.5922 240.47 44.1624C240.419 43.9216 240.419 43.6327 240.419 43.4883C244.504 43.6809 248.689 43.9216 252.673 44.2105C255.951 44.4031 259.38 41.7067 259.38 38.5769C259.481 35.3508 257.01 32.4618 253.379 32.2692C249.093 32.0285 244.756 31.7395 240.419 31.4988C240.772 23.8429 241.025 24.0836 241.327 18.8352C248.488 19.0278 255.245 19.7019 261.901 20.8094C263.464 21.0501 265.431 20.2316 266.54 19.3649C267.65 18.2574 268.507 16.7166 268.507 15.1276C268.558 13.6831 268.205 11.9978 267.045 10.9385Z" fill="#5B5B5B"/>
<path d="M221.508 68.4786C221.205 67.2748 220.651 65.9748 219.491 65.3007C218.18 64.434 217.07 64.3377 215.507 64.3858C210.818 64.5784 206.128 65.0118 201.489 65.734C198.967 66.1192 196.345 66.5526 194.126 67.8045C191.605 69.2972 188.831 69.5379 189.689 74.4974C190.344 78.3495 200.077 76.0864 200.077 76.0864C205.926 75.0271 211.524 74.4493 217.171 74.2085C218.482 74.1604 219.945 73.1492 220.651 72.2825C221.407 71.175 221.811 69.7787 221.508 68.4786Z" fill="#5B5B5B"/>
</svg>
