<svg width="350" height="150" viewBox="0 0 355 159" fill="none" xmlns="http://www.w3.org/2000/svg">
<path d="M50.4633 80.4462C47.8093 79.4254 45.4104 80.191 43.3688 82.1305C39.745 86.0096 20.9623 108.059 18.7676 92.8489C17.7979 88.5616 17.5937 84.2232 17.5937 79.6296C17.5937 76.6183 13.9699 73.8111 11.0606 74.2194C7.64095 74.6787 5.59936 77.3328 5.54832 80.5483C5.44624 85.1419 5.85456 89.6844 6.82432 94.227C7.99823 101.577 11.4689 109.998 19.5332 111.376C25.7601 112.448 32.9567 108.926 36.9378 104.537C35.6108 108.314 33.7733 116.991 32.4463 120.564C27.8017 128.985 16.2667 127.607 8.91695 124.034C5.9056 122.656 1.87346 123.83 0.546424 126.739C-0.78061 129.649 0.342265 133.17 3.55777 134.65C18.1041 141.439 39.4387 142.46 44.3896 123.32C45.8698 118.267 48.4728 108.722 49.7488 103.669C51.1779 98.055 52.607 92.3385 54.0361 86.571C54.6486 84.2742 52.658 81.2629 50.4633 80.4462Z" fill="#FF5C00"/>
<path d="M153.104 107.753C152.747 102.853 151.369 91.42 150.246 86.6733C149.532 83.713 146.163 81.3652 143.101 82.2839C139.936 83.2026 137.997 86.1629 138.609 89.3784C140.498 96.6261 141.978 111.989 140.855 119.441C139.936 125.617 137.18 131.078 130.8 130.772C125.186 130.465 122.379 125.106 121.715 120.87C120.337 112.346 122.327 105.711 123.603 97.1875C124.063 94.1252 120.949 91.0117 118.04 90.9607C114.569 90.8586 112.273 93.1554 111.711 96.4219C110.946 100.505 110.384 104.639 109.874 108.723C108.394 120.258 108.853 132.456 119.929 139.5C127.38 144.093 137.027 143.379 144.121 138.479C149.634 134.651 152.849 125.872 153.309 119.594C153.564 115.817 153.411 111.683 153.104 107.753Z" fill="#FF5C00"/>
<path d="M194.855 128.985C193.017 128.577 187.301 126.943 185.617 126.433C191.384 122.707 196.692 114.643 196.692 107.65C196.692 99.2799 191.333 91.7771 183.575 88.7147C179.135 86.9283 174.031 86.1627 169.692 86.4689C168.723 85.6523 167.498 85.0398 165.915 85.0909C162.853 85.1929 159.791 87.5918 159.893 90.8584C160.403 106.834 160.76 137.1 160.862 153.025C160.862 156.138 163.67 159.099 167.038 158.996C170.305 158.945 173.367 156.496 173.367 153.178C173.367 151.8 173.316 136.233 173.316 134.906C178.063 136.641 186.893 139.295 191.639 140.418C194.855 141.184 198.632 139.346 199.295 136.182C199.857 133.17 198.172 129.853 194.855 128.985ZM180.921 114.847C178.828 117.144 175.919 118.675 172.908 119.543C172.704 112.397 172.448 105.252 172.142 98.106H172.244C175.409 98.6164 178.42 99.1268 180.666 100.403C186.331 103.669 184.494 111.121 180.921 114.847Z" fill="#FF5C00"/>
<path d="M235.278 124.035C231.807 117.757 225.223 114.082 219.252 110.51C206.747 105.253 225.223 98.6685 229.204 98.2091C232.216 97.8518 235.125 95.1467 234.819 92.0333C234.512 88.9199 231.807 86.3168 228.592 86.4189C217.006 86.8783 198.223 96.6779 203.786 111.326C205.93 117.043 213.637 121.228 218.996 124.699C221.089 126.077 224.458 128.527 222.365 131.181C219.966 134.141 213.79 132.967 210.524 132.304C207.41 131.64 203.684 133.427 202.97 136.591C202.306 139.5 204.144 143.073 207.563 143.737C216.751 145.37 231.246 144.911 235.227 134.243C236.605 130.875 236.809 127.302 235.278 124.035Z" fill="#FF5C00"/>
<path d="M258.144 130.11C258.195 130.11 258.246 130.11 258.297 130.161C258.297 130.11 258.246 130.11 258.144 130.11ZM257.736 129.804C257.685 129.804 257.634 129.804 257.634 129.804C257.634 129.804 257.685 129.855 257.736 129.804C257.787 129.855 257.838 129.855 257.889 129.855C257.838 129.855 257.787 129.804 257.736 129.804ZM256.358 126.027C256.358 126.18 256.46 126.435 256.511 126.589C256.613 126.946 256.664 126.589 256.358 126.027ZM257.379 94.5356C259.063 94.6887 260.696 94.8419 262.279 94.995C265.8 95.3523 269.22 95.6585 272.691 95.9647C275.753 96.2199 279.326 94.3315 279.632 91.116C279.938 88.2067 277.846 84.5318 274.681 84.2766C271.364 83.9704 267.842 83.7662 264.422 83.409C261.054 83.0517 257.532 82.4902 254.112 82.4902C249.978 82.4902 245.946 84.3277 243.955 88.0025C242.169 91.218 242.373 95.5054 242.22 98.9761C241.914 105.764 242.118 112.655 242.883 119.443C243.292 123.016 243.904 126.538 244.721 130.11C245.384 133.224 246.865 136.439 249.468 138.685C256.919 144.35 266.617 140.88 274.426 138.124C277.591 137.256 279.428 133.173 278.101 130.468C276.672 127.456 273.303 126.129 270.037 127.15C267.076 128.069 264.116 128.936 261.156 129.651C261.156 129.651 260.288 129.906 260.237 129.906C259.778 129.957 259.216 130.008 258.706 130.059C258.655 130.059 258.604 130.059 258.553 130.059C258.502 130.059 258.4 130.059 258.349 130.059C258.4 130.059 258.4 130.11 258.4 130.11C258.297 130.11 258.246 130.059 258.144 130.059C258.144 130.008 258.144 130.008 258.144 129.957C258.042 129.957 258.042 129.906 257.94 129.906C257.889 129.855 257.889 129.855 257.838 129.804L257.787 129.753C257.685 129.702 257.634 129.6 257.583 129.498C257.277 128.63 256.817 127.609 256.562 126.64C256.562 126.64 256.562 126.64 256.562 126.538C256.562 126.538 256.46 126.487 256.46 126.384C256.46 126.231 256.46 126.129 256.409 125.976C256.409 125.976 256.409 125.976 256.409 125.925C256.256 125.211 256.154 124.598 256.103 124.037C256.001 123.271 255.797 122.25 255.643 121.383C258.195 120.923 260.849 120.668 263.35 120.311C266.464 119.902 269.424 117.044 268.914 113.829C268.454 110.766 265.647 108.112 262.33 108.521C259.676 108.878 257.021 109.235 254.367 109.694C254.163 107.091 254.061 104.386 254.112 101.936C254.112 100.558 254.163 98.9761 254.163 97.598C254.265 93.8211 253.908 94.2294 257.379 94.5356Z" fill="#FF5C00"/>
<path d="M311.685 126.638C309.592 126.689 306.326 127.2 304.335 127.455C302.447 127.71 301.63 125.209 301.375 122.147C300.507 111.684 300.967 101.272 301.936 90.6553C302.447 87.5419 300.048 84.2753 296.883 83.9691C293.719 83.6629 290.503 85.7555 290.044 89.022C288.462 102.19 287.849 114.899 289.84 127.557C290.554 131.998 293.004 136.897 298.057 138.48C300.609 139.245 303.314 139.5 306.019 139.143C308.01 138.888 310.46 138.633 312.604 138.02C320.209 135.826 318.524 126.434 311.685 126.638Z" fill="#FF5C00"/>
<path d="M354.1 77.4357C353.743 76.0066 352.977 74.4754 351.701 73.7609C350.17 72.8422 348.894 72.689 347.158 72.7911C341.901 73.0463 336.491 73.7098 331.234 74.5775C328.376 75.0368 325.313 75.4962 322.863 77.0274C320.005 78.7628 318.27 81.57 317.708 84.9386C317.3 87.3885 317.657 89.9915 317.964 92.2373C319.75 106.477 323.017 120.462 327.151 134.396C327.508 135.672 329.294 136.948 330.519 137.356C332 137.867 333.99 137.969 335.47 137.152C338.788 135.621 339.451 132.406 338.584 129.394C337.308 125.158 336.032 120.82 335.011 116.583C334.909 116.379 334.858 116.124 334.807 115.971C338.788 115.307 339.298 115.562 343.177 114.899C346.393 114.389 348.996 110.969 348.332 108.009C347.618 104.946 344.657 102.7 341.136 103.313C337.002 104.027 336.44 103.772 332.255 104.436C330.979 97.035 330.468 91.931 329.652 86.827C336.389 85.551 342.871 84.7855 349.353 84.3261C350.884 84.224 352.62 82.9991 353.334 81.9272C354.049 80.7533 354.508 78.9669 354.1 77.4357Z" fill="#FF5C00"/>
<path d="M103.85 108.518C101.91 98.2078 94.5094 89.3269 84.6076 86.7238C78.7381 85.1416 72.1029 86.1114 66.4375 89.0206C50.8193 96.7276 52.0442 118.522 61.1804 130.873C63.273 133.68 65.9271 136.079 68.9895 137.866L70.8269 130.567C71.1842 128.219 70.6227 126.076 69.4999 124.034C67.5603 120.461 66.9989 116.786 68.1218 112.754C69.5509 107.599 70.7248 102.393 72.0518 97.187C72.5112 95.4516 73.3278 94.7881 74.6038 95.0944C75.8798 95.4006 76.2881 96.4724 75.8798 98.1567C74.6038 103.21 73.3789 108.263 72.1029 113.316C72.0008 113.724 71.3883 115.612 72.8685 116.021C74.2466 116.378 74.6038 114.387 74.6549 114.081C75.9309 109.079 77.1558 104.077 78.4318 99.0755C78.8401 97.4422 79.7078 96.7787 80.9328 97.0849C82.2088 97.3911 82.7192 98.4119 82.3108 100.147C82.2598 100.402 82.2088 100.658 82.1067 100.913C80.8817 105.762 79.7078 110.61 78.4829 115.459C78.2787 116.327 78.0745 117.297 78.8912 117.705C78.9933 117.756 79.1464 117.807 79.2995 117.858C80.4734 118.164 80.8307 117.195 81.0348 116.225C81.6473 113.673 82.464 110.355 83.1275 107.854C83.4848 106.476 84.1483 105.302 85.5774 105.047C87.1086 104.741 88.5887 105.098 89.4564 106.425C90.3241 107.803 91.0386 109.283 91.7532 110.764C92.1615 111.631 91.498 112.601 90.5793 112.499C88.946 112.295 87.8742 111.427 87.1596 109.998C87.0575 109.743 87.0065 109.488 86.9044 109.232C86.8023 108.926 86.7513 108.62 86.6492 108.314C86.6492 108.62 86.6492 108.926 86.6492 109.283C86.6492 109.385 86.6492 109.539 86.6492 109.641C86.1388 111.682 85.4243 114.541 84.9139 116.633C84.6587 117.705 83.8931 119.083 85.4753 119.491C86.9555 119.9 87.0065 118.42 87.3638 117.399C87.8742 115.868 88.6908 114.847 89.7626 114.387C90.8855 113.928 92.0594 115 91.7532 116.225C91.447 117.501 91.0897 118.828 90.7834 120.155C89.9158 123.728 87.9763 126.382 84.8118 128.066C82.6681 129.24 81.239 131.026 80.3713 133.323L78.4318 140.979C78.3808 141.081 78.3808 141.183 78.3297 141.285C82.3108 141.745 86.394 141.03 90.0689 138.835C99.8175 132.762 105.993 120.206 103.85 108.518Z" fill="#FF5C00"/>
<path d="M131.156 57.6334C129.982 54.2647 126.46 51.4575 123.449 53.1419C116.303 57.123 108.698 59.9302 102.012 57.2761C89.4565 52.1211 93.897 36.4008 100.685 28.7959C103.288 25.8356 106.453 23.6919 109.617 23.0284C112.884 22.2628 116.405 22.9263 118.855 25.4783C119.774 26.7543 121.918 27.3668 123.194 27.2647C124.674 27.1626 126.358 26.1929 127.226 24.8148C128.196 23.3346 128.808 21.4462 128.553 19.4046C128.349 17.4651 127.634 15.9339 126.46 14.4537C117.988 4.19471 104.768 7.20606 95.8875 14.6068C79.7589 28.3365 75.4716 63.2478 98.4395 70.9548C107.78 74.1192 119.111 71.4652 127.634 66.8205C130.544 65.5445 132.534 61.5124 131.156 57.6334Z" fill="#4E4E4E"/>
<path d="M173.111 8.78821C169.385 8.89029 167.037 11.5444 166.782 15.1171C166.272 21.293 166.323 25.223 166.068 31.3988C159.535 32.2665 156.727 33.0831 150.041 34.0529C149.786 26.6521 149.071 13.7901 148.969 6.33831C148.969 2.96968 146.06 -0.194789 142.64 0.00936994C139.272 0.11145 136.311 2.81656 136.362 6.33831C136.465 23.6408 137.792 46.4556 139.425 63.656C139.68 66.9225 141.977 70.1891 145.754 69.9849C148.918 69.8828 152.338 67.1777 152.083 63.656C151.572 57.9906 151.113 52.3762 150.756 46.7108C156.931 45.741 159.381 45.1285 165.455 44.2609C165.251 51.6616 165.251 59.0624 165.353 66.5653C165.353 69.9339 168.16 73.0983 171.682 72.8942C175.102 72.7411 178.113 70.087 178.113 66.5653C177.756 48.6503 177.96 32.93 179.338 15.1171C179.695 11.7485 176.276 8.58405 173.111 8.78821Z" fill="#4E4E4E"/>
<path d="M202.612 52.4275C202.663 52.4785 202.765 52.4785 202.765 52.4785C202.816 52.4785 202.714 52.4785 202.612 52.4275ZM201.949 52.3254H202C202.051 52.3254 202.051 52.3254 202.102 52.3764C202.102 52.3254 202.051 52.3254 201.949 52.3254ZM201.642 51.9681C201.54 51.9171 201.54 51.9171 201.54 51.9171C201.54 51.9171 201.591 52.0191 201.642 51.9681C201.693 52.0191 201.744 52.0191 201.796 52.0191C201.744 52.0191 201.693 51.9681 201.642 51.9681ZM200.571 47.7828C200.571 47.987 200.673 48.2422 200.673 48.3953C200.724 48.7526 200.826 48.4464 200.571 47.7828ZM200.571 17.0058C201.03 12.8716 200.571 13.2799 204.296 13.9435C206.032 14.3007 207.716 14.5559 209.4 14.9132C213.126 15.6278 211.646 15.5257 215.219 16.2402C218.383 16.8527 222.262 15.2705 223.079 11.8508C223.692 8.68635 222.007 4.70526 218.588 3.88862C214.964 3.27614 216.444 3.32718 212.769 2.66366C209.145 1.84702 205.521 0.979352 201.847 0.724153C197.355 0.264795 192.966 1.94911 190.567 5.82813C188.372 9.19676 188.27 13.7903 187.913 17.5673C187.045 24.9681 186.841 32.3178 187.198 39.7186C187.351 43.5976 187.811 47.3745 188.321 51.3556C188.831 54.7753 190.107 58.3481 192.557 60.9511C199.244 67.9946 209.656 64.3197 217.771 62.6354C221.038 62.0229 223.232 57.9398 222.262 54.7753C221.038 51.3556 217.873 49.5692 214.402 50.3859C211.34 51.1004 208.227 51.7129 205.164 52.2233C205.164 52.2233 204.296 52.3764 204.194 52.3764H202.408C202.306 52.3764 202.255 52.3764 202.153 52.3254C202.204 52.3254 202.204 52.3764 202.204 52.3764C202.153 52.3764 202.051 52.3254 202 52.3254H201.949V52.2233C201.847 52.2233 201.847 52.1212 201.744 52.1212C201.693 52.0702 201.693 52.0702 201.642 52.0191L201.591 51.9681C201.489 51.866 201.438 51.815 201.387 51.6619C201.132 50.6921 200.775 49.5692 200.571 48.4974C200.571 48.4974 200.571 48.4974 200.571 48.3953C200.571 48.3953 200.468 48.2932 200.468 48.1912V47.7318C200.366 46.9152 200.264 46.3027 200.264 45.6392C200.162 44.7715 200.111 43.6997 200.009 42.7299C202.663 42.4747 205.368 42.3726 208.022 42.2705C211.289 42.0664 214.555 39.3613 214.351 35.8395C214.147 32.4709 211.544 29.3064 208.022 29.5106C205.215 29.6127 202.459 29.7658 199.652 30.021C199.652 27.2138 199.805 24.3556 200.009 21.6505C200.315 20.2214 200.366 18.537 200.571 17.0058Z" fill="#4E4E4E"/>
<path d="M270.291 11.5944C268.964 10.2163 267.637 9.75698 265.8 9.3997C260.185 8.37891 254.52 7.71539 248.752 7.40915C245.69 7.25603 242.423 7.05186 239.463 8.02162C236.043 9.24658 233.696 11.7475 232.369 15.2182C231.45 17.7192 231.297 20.5264 231.041 23.0273C229.612 39.9215 230.48 52.4773 231.756 67.3809C231.858 68.81 233.236 70.5454 234.461 71.2599C235.839 72.2297 237.728 72.689 239.361 72.1276C242.934 71.2599 244.516 68.1465 244.108 64.6247C244.057 59.5718 243.495 51.5075 243.393 46.8119C243.342 46.5567 243.342 46.2504 243.342 46.0973C247.476 46.3015 251.713 46.5567 255.745 46.8629C259.062 47.0671 262.533 44.2088 262.533 40.8912C262.635 37.4716 260.134 34.4092 256.459 34.205C252.121 33.9498 247.731 33.6436 243.342 33.3884C243.699 25.2731 243.955 25.5283 244.261 19.9649C251.508 20.1691 258.348 20.8836 265.085 22.0576C266.667 22.3128 268.658 21.4451 269.781 20.5264C270.904 19.3525 271.771 17.7192 271.771 16.0349C271.822 14.5037 271.465 12.7173 270.291 11.5944Z" fill="#4E4E4E"/>
<path d="M224.201 72.5873C223.895 71.3114 223.334 69.9333 222.16 69.2187C220.833 68.3 219.71 68.1979 218.128 68.249C213.381 68.4531 208.634 68.9125 203.939 69.6781C201.387 70.0864 198.733 70.5458 196.487 71.8728C193.935 73.455 191.128 73.7102 191.995 78.9673C192.659 83.0505 202.509 80.6516 202.509 80.6516C208.43 79.5288 214.096 78.9163 219.812 78.6611C221.139 78.61 222.619 77.5382 223.334 76.6195C224.099 75.4456 224.508 73.9654 224.201 72.5873Z" fill="#4E4E4E"/>
</svg>
