<svg width="41" height="41" viewBox="0 0 41 41" fill="none" xmlns="http://www.w3.org/2000/svg">
<path d="M39.4509 36.5367L30.3684 27.4689C32.5551 24.5626 33.7355 21.0251 33.7315 17.3901C33.7315 8.10552 26.1655 0.551754 16.8658 0.551755C7.56604 0.551757 -2.71159e-06 8.10554 -1.01242e-06 17.3902C6.86741e-07 26.6748 7.56604 34.2286 16.8658 34.2286C20.5066 34.2325 24.0499 33.054 26.9609 30.8709L36.0434 39.9387C36.5032 40.349 37.1028 40.568 37.7193 40.5508C38.3357 40.5336 38.9221 40.2814 39.3582 39.8461C39.7942 39.4107 40.0468 38.8252 40.0641 38.2098C40.0813 37.5944 39.8619 36.9957 39.4509 36.5367ZM4.81879 17.3902C4.81879 15.0114 5.52533 12.686 6.84907 10.7081C8.17281 8.7302 10.0543 7.1886 12.2556 6.27827C14.4569 5.36794 16.8791 5.12978 19.216 5.59386C21.5529 6.05794 23.6995 7.20342 25.3843 8.88549C27.0691 10.5676 28.2164 12.7107 28.6813 15.0437C29.1461 17.3768 28.9075 19.7951 27.9957 21.9929C27.0839 24.1906 25.5398 26.069 23.5587 27.3906C21.5776 28.7122 19.2484 29.4176 16.8658 29.4176C13.6719 29.4138 10.6099 28.1454 8.3515 25.8906C6.09308 23.6359 4.82262 20.5789 4.81879 17.3902Z" fill="#FF7D36"/>
<path d="M39.4509 36.5367L30.3684 27.4689C32.5551 24.5626 33.7355 21.0251 33.7315 17.3901C33.7315 8.10552 26.1655 0.551754 16.8658 0.551755C7.56604 0.551757 -2.71159e-06 8.10554 -1.01242e-06 17.3902C6.86741e-07 26.6748 7.56604 34.2286 16.8658 34.2286C20.5066 34.2325 24.0499 33.054 26.9609 30.8709L36.0434 39.9387C36.5032 40.349 37.1028 40.568 37.7193 40.5508C38.3357 40.5336 38.9221 40.2814 39.3582 39.8461C39.7942 39.4107 40.0468 38.8252 40.0641 38.2098C40.0813 37.5944 39.8619 36.9957 39.4509 36.5367ZM4.81879 17.3902C4.81879 15.0114 5.52533 12.686 6.84907 10.7081C8.17281 8.7302 10.0543 7.1886 12.2556 6.27827C14.4569 5.36794 16.8791 5.12978 19.216 5.59386C21.5529 6.05794 23.6995 7.20342 25.3843 8.88549C27.0691 10.5676 28.2164 12.7107 28.6813 15.0437C29.1461 17.3768 28.9075 19.7951 27.9957 21.9929C27.0839 24.1906 25.5398 26.069 23.5587 27.3906C21.5776 28.7122 19.2484 29.4176 16.8658 29.4176C13.6719 29.4138 10.6099 28.1454 8.3515 25.8906C6.09308 23.6359 4.82262 20.5789 4.81879 17.3902Z" fill="#FF7D36"/>
</svg>
