<svg width="37" height="37" viewBox="0 0 37 37" fill="none" xmlns="http://www.w3.org/2000/svg">
<path fill-rule="evenodd" clip-rule="evenodd" d="M18.5 3.7C15.9114 3.69952 13.368 4.378 11.1235 5.66771C8.8791 6.95742 7.01219 8.81324 5.70914 11.05C4.4061 13.2867 3.71249 15.826 3.69755 18.4146C3.68261 21.0031 4.34687 23.5503 5.62401 25.8019C6.48724 24.68 7.59691 23.7717 8.86722 23.1471C10.1375 22.5226 11.5345 22.1985 12.95 22.2H24.05C25.4655 22.1985 26.8625 22.5226 28.1328 23.1471C29.4031 23.7717 30.5128 24.68 31.376 25.8019C32.6531 23.5503 33.3174 21.0031 33.3024 18.4146C33.2875 15.826 32.5939 13.2867 31.2909 11.05C29.9878 8.81324 28.1209 6.95742 25.8765 5.66771C23.632 4.378 21.0886 3.69952 18.5 3.7ZM33.1945 29.7406C35.668 26.516 37.0059 22.564 37 18.5C37 8.28244 28.7175 0 18.5 0C8.28246 0 2.08185e-05 8.28244 2.08185e-05 18.5C-0.00608683 22.564 1.33184 26.516 3.80547 29.7406L3.79622 29.7739L4.45297 30.5379C6.18805 32.5665 8.34237 34.1947 10.7674 35.3103C13.1925 36.4259 15.8306 37.0023 18.5 37C22.2506 37.0069 25.9137 35.8676 28.9987 33.7347C30.314 32.826 31.5065 31.7516 32.547 30.5379L33.2038 29.7739L33.1945 29.7406ZM18.5 7.39999C17.028 7.39999 15.6164 7.98472 14.5756 9.02555C13.5347 10.0664 12.95 11.478 12.95 12.95C12.95 14.4219 13.5347 15.8336 14.5756 16.8744C15.6164 17.9153 17.028 18.5 18.5 18.5C19.972 18.5 21.3836 17.9153 22.4244 16.8744C23.4653 15.8336 24.05 14.4219 24.05 12.95C24.05 11.478 23.4653 10.0664 22.4244 9.02555C21.3836 7.98472 19.972 7.39999 18.5 7.39999Z" fill="white"/>
</svg>
