<svg width="52" height="51" viewBox="0 0 52 51" fill="none" xmlns="http://www.w3.org/2000/svg">
<path fill-rule="evenodd" clip-rule="evenodd" d="M26.0003 50.2871C39.8863 50.2871 51.1431 39.0303 51.1431 25.1443C51.1431 11.2582 39.8863 0.00139829 26.0003 0.00139508C12.1143 0.00139569 0.85742 11.2582 0.857421 25.1443C0.857421 39.0303 12.1143 50.2871 26.0003 50.2871ZM31.7504 9.64174C31.7499 11.4048 32.3842 13.108 33.5351 14.4343C35.8249 17.1024 38.9902 16.9495 38.9902 16.9495L38.9902 22.2008C36.3929 22.2053 33.86 21.3848 31.7504 19.8556L31.7504 30.5452C31.7504 35.8986 27.457 40.2322 22.1703 40.2322C17.2371 40.2322 12.5902 36.2045 12.5902 30.5452C12.5902 24.733 17.6749 20.1785 23.4836 20.9602L23.4836 26.3305C20.6045 25.4298 17.8096 27.6221 17.8096 30.5452C17.8096 32.9925 19.7963 34.9639 22.1871 34.9639C23.3176 34.9637 24.404 34.5207 25.2173 33.7282C26.0307 32.9357 26.5077 31.8556 26.5478 30.7152L26.5478 9.64174L31.7504 9.64174Z" fill="#4E4E4E"/>
</svg>
