<svg width="100" height="101" viewBox="0 0 100 101" fill="none" xmlns="http://www.w3.org/2000/svg">
<circle cx="50" cy="50.6204" r="50" fill="white"/>
<path fill-rule="evenodd" clip-rule="evenodd" d="M50 82.6204C67.6731 82.6204 82 68.2935 82 50.6204C82 32.9472 67.6731 18.6204 50 18.6204C32.3269 18.6204 18 32.9472 18 50.6204C18 68.2935 32.3269 82.6204 50 82.6204ZM57.3183 30.8899C57.3177 33.1338 58.125 35.3015 59.5898 36.9894C62.504 40.3853 66.5326 40.1906 66.5326 40.1906L66.5326 46.8742C63.227 46.8799 60.0033 45.8356 57.3183 43.8893L57.3183 57.4943C57.3183 64.3077 51.854 69.8232 45.1255 69.8232C38.8469 69.8232 32.9326 64.697 32.9326 57.4943C32.9326 50.097 39.404 44.3003 46.7969 45.2952L46.7969 52.1302C43.1326 50.9838 39.5755 53.774 39.5755 57.4943C39.5755 60.609 42.104 63.118 45.1469 63.118C46.5857 63.1178 47.9683 62.5541 49.0035 61.5454C50.0388 60.5368 50.6458 59.162 50.6969 57.7106L50.6969 30.8899L57.3183 30.8899Z" fill="#FF7C33"/>
</svg>
