<svg width="32" height="32" viewBox="0 0 32 32" fill="none" xmlns="http://www.w3.org/2000/svg">
<path d="M16 0C7.162 0 0 7.164 0 16C0 24.836 7.162 32 16 32C24.838 32 32 24.836 32 16C32 7.164 24.838 0 16 0ZM23.414 20.586C23.789 20.961 23.9997 21.4696 23.9997 22C23.9997 22.5304 23.789 23.039 23.414 23.414C23.039 23.789 22.5304 23.9997 22 23.9997C21.4696 23.9997 20.961 23.789 20.586 23.414L16 18.828L11.414 23.414C11.2287 23.6004 11.0084 23.7483 10.7657 23.8492C10.523 23.9501 10.2628 24.0021 10 24.0021C9.73718 24.0021 9.47696 23.9501 9.23429 23.8492C8.99163 23.7483 8.77131 23.6004 8.586 23.414C8.40011 23.2284 8.25263 23.008 8.15201 22.7654C8.05139 22.5228 7.9996 22.2627 7.9996 22C7.9996 21.7373 8.05139 21.4772 8.15201 21.2346C8.25263 20.992 8.40011 20.7716 8.586 20.586L13.172 16L8.586 11.414C8.21098 11.039 8.0003 10.5304 8.0003 10C8.0003 9.46965 8.21098 8.96102 8.586 8.586C8.96102 8.21098 9.46965 8.0003 10 8.0003C10.5304 8.0003 11.039 8.21098 11.414 8.586L16 13.172L20.586 8.586C20.961 8.21098 21.4696 8.0003 22 8.0003C22.5304 8.0003 23.039 8.21098 23.414 8.586C23.789 8.96102 23.9997 9.46965 23.9997 10C23.9997 10.5304 23.789 11.039 23.414 11.414L18.828 16L23.414 20.586Z" fill="#949494"/>
</svg>
